HIERARCHY
ROOT Hips
{
	OFFSET -0.001795 -0.223333 0.028219
	CHANNELS 6 Xposition Yposition Zposition Zrotation Yrotation Xrotation 
	JOINT LeftUpLeg
	{
		OFFSET 0.069520 -0.091406 -0.006815
		CHANNELS 3 Zrotation Yrotation Xrotation
		JOINT LeftLeg
		{
			OFFSET 0.034277 -0.375199 -0.004496
			CHANNELS 3 Zrotation Yrotation Xrotation
			JOINT LeftFoot
			{
				OFFSET -0.013596 -0.397961 -0.043693
				CHANNELS 3 Zrotation Yrotation Xrotation
				JOINT LeftToe
				{
					OFFSET 0.026358 -0.055791 0.119288
					CHANNELS 3 Zrotation Yrotation Xrotation
					End Site
					{
						OFFSET 0.000000 0.000000 0.000000
					}
				}
			}
		}
	}
	JOINT RightUpLeg
	{
		OFFSET -0.067670 -0.090522 -0.004320
		CHANNELS 3 Zrotation Yrotation Xrotation
		JOINT RightLeg
		{
			OFFSET -0.038290 -0.382569 -0.008850
			CHANNELS 3 Zrotation Yrotation Xrotation
			JOINT RightFoot
			{
				OFFSET 0.015774 -0.398415 -0.042312
				CHANNELS 3 Zrotation Yrotation Xrotation
				JOINT RightToe
				{
					OFFSET -0.025372 -0.048144 0.123348
					CHANNELS 3 Zrotation Yrotation Xrotation
					End Site
					{
						OFFSET 0.000000 0.000000 0.000000
					}
				}
			}
		}
	}
	JOINT Spine
	{
		OFFSET -0.002533 0.108963 -0.026696
		CHANNELS 3 Zrotation Yrotation Xrotation
		JOINT Spine1
		{
			OFFSET 0.005487 0.135180 0.001092
			CHANNELS 3 Zrotation Yrotation Xrotation
			JOINT Spine2
			{
				OFFSET 0.001457 0.052922 0.025425
				CHANNELS 3 Zrotation Yrotation Xrotation
				JOINT Neck
				{
					OFFSET -0.002778 0.213870 -0.042857
					CHANNELS 3 Zrotation Yrotation Xrotation
					JOINT Head
					{
						OFFSET 0.005152 0.064970 0.051349
						CHANNELS 3 Zrotation Yrotation Xrotation
						End Site
						{
							OFFSET 0.000000 0.000000 0.000000
						}
					}
				}
				JOINT LeftShoulder
				{
					OFFSET 0.078845 0.121749 -0.034090
					CHANNELS 3 Zrotation Yrotation Xrotation
					JOINT LeftArm
					{
						OFFSET 0.090977 0.030469 -0.008868
						CHANNELS 3 Zrotation Yrotation Xrotation
						JOINT LeftForeArm
						{
							OFFSET 0.259612 -0.012772 -0.027456
							CHANNELS 3 Zrotation Yrotation Xrotation
							JOINT LeftHand
							{
								OFFSET 0.249234 0.008986 -0.001171
								CHANNELS 3 Zrotation Yrotation Xrotation
								End Site
								{
									OFFSET 0.000000 0.000000 0.000000
								}
							}
						}
					}
				}
				JOINT RightShoulder
				{
					OFFSET -0.081759 0.118833 -0.038615
					CHANNELS 3 Zrotation Yrotation Xrotation
					JOINT RightArm
					{
						OFFSET -0.096012 0.032551 -0.009143
						CHANNELS 3 Zrotation Yrotation Xrotation
						JOINT RightForeArm
						{
							OFFSET -0.253742 -0.013329 -0.021401
							CHANNELS 3 Zrotation Yrotation Xrotation
							JOINT RightHand
							{
								OFFSET -0.255298 0.007772 -0.005559
								CHANNELS 3 Zrotation Yrotation Xrotation
								End Site
								{
									OFFSET 0.000000 0.000000 0.000000
								}
							}
						}
					}
				}
			}
		}
	}
}
MOTION
Frames: 10
Frame Time: 0.050000
-0.505077 0.834950 -2.439768 -1.898518 32.623413 -8.413578 16.655150 -2.641689 -33.175574 -16.183995 -0.981252 49.943712 7.789504 18.978926 11.492248 0.000000 0.000000 0.000000 -9.903945 -2.333878 -22.383622 2.307550 -9.978114 54.423786 -8.173098 -21.266623 -7.458510 0.000000 0.000000 0.000000 -10.339262 -2.571331 36.008064 -3.383563 2.345433 -11.596312 0.112948 12.786239 22.895100 -2.086413 5.652914 -13.241721 0.000000 0.000000 0.000000 -8.703777 -37.455098 10.274421 11.295096 -36.517379 -6.252939 61.103667 -18.436950 -14.301036 0.000000 0.000000 0.000000 -28.560858 31.628312 -0.408001 -24.800562 25.719739 -1.190154 -76.703843 -0.946752 8.107634 0.000000 0.000000 0.000000 
-0.502221 0.834192 -2.441574 -1.458520 31.888234 -7.848250 16.918852 -2.585420 -33.591053 -17.381354 -0.208847 50.183203 7.575813 18.600517 11.411780 0.000000 0.000000 0.000000 -9.995893 -2.339108 -22.744931 1.723794 -9.515597 55.287074 -8.089172 -21.007562 -7.763025 0.000000 0.000000 0.000000 -10.108223 -2.439016 35.446638 -3.416316 2.333688 -11.701616 -0.789917 12.690039 22.917143 -1.926526 5.343567 -12.061724 0.000000 0.000000 0.000000 -8.174736 -37.399658 10.297247 10.300546 -35.942056 -5.861095 60.449623 -17.223991 -13.511187 0.000000 0.000000 0.000000 -28.398769 30.691467 -0.503279 -25.009390 23.927153 -0.817980 -77.831263 -2.382220 9.538450 0.000000 0.000000 0.000000 
-0.499404 0.833034 -2.441173 -0.859015 31.090507 -7.356813 17.433397 -2.446706 -33.912854 -18.475083 0.606686 49.830149 7.760621 19.020398 12.619967 0.000000 0.000000 0.000000 -10.071655 -2.353285 -23.308176 0.949530 -9.107409 57.167978 -7.875293 -20.187464 -7.618427 0.000000 0.000000 0.000000 -9.799123 -2.322809 34.942335 -3.462622 2.325711 -11.622916 -1.760894 13.046574 22.979004 -2.147962 5.267435 -10.690524 0.000000 0.000000 0.000000 -8.622396 -37.349481 10.302334 9.507236 -35.831697 -5.607935 60.280647 -17.490232 -13.598484 0.000000 0.000000 0.000000 -28.082066 29.709322 -0.582789 -25.440488 22.920773 -0.572693 -78.679748 -2.841174 10.160441 0.000000 0.000000 0.000000 
-0.496457 0.830933 -2.438531 -0.479165 30.281127 -7.067846 17.240441 -2.378606 -33.965387 -19.498443 1.282187 50.297091 7.662039 18.596716 11.381584 0.000000 0.000000 0.000000 -9.781605 -2.211472 -23.632152 0.194093 -8.737493 59.132395 -8.128646 -20.707375 -7.366929 0.000000 0.000000 0.000000 -9.402150 -2.268926 34.632515 -4.266252 2.580439 -11.779008 -2.479952 12.684356 23.073570 -1.867945 4.844735 -9.724220 0.000000 0.000000 0.000000 -7.896439 -36.546180 10.112139 8.035201 -36.064286 -5.276262 60.693440 -17.807426 -14.019664 0.000000 0.000000 0.000000 -27.472392 29.075067 -0.477098 -26.430220 22.310731 -0.459448 -79.600363 -3.581716 10.598650 0.000000 0.000000 0.000000 
-0.493340 0.827611 -2.434488 -0.123726 29.978888 -6.942740 17.367101 -2.315672 -33.966419 -20.850854 2.023202 50.494066 8.547956 19.907711 11.593366 0.000000 0.000000 0.000000 -9.654247 -2.134497 -23.637773 -0.443599 -8.577957 60.910811 -8.310914 -21.114324 -7.371082 0.000000 0.000000 0.000000 -9.716444 -2.142801 34.614596 -4.729606 2.727782 -11.138419 -2.698737 13.106660 22.555702 -1.459087 4.493623 -9.559253 0.000000 0.000000 0.000000 -7.782344 -36.433781 10.067469 7.024665 -36.300681 -5.049216 60.831153 -19.587739 -15.138543 0.000000 0.000000 0.000000 -26.973207 28.519725 -0.350567 -27.365935 21.906062 -0.369513 -79.756470 -3.170363 10.219079 0.000000 0.000000 0.000000 
-0.490022 0.824377 -2.430174 0.189094 29.161176 -6.649174 17.512914 -2.177095 -33.981515 -22.273589 2.961894 50.338155 9.444561 21.075709 10.840007 0.000000 0.000000 0.000000 -9.688787 -2.051658 -23.626997 -0.792144 -8.304947 62.428291 -8.304270 -20.965497 -7.299925 0.000000 0.000000 0.000000 -9.950047 -1.936454 34.267894 -5.609386 3.001907 -11.172904 -2.766582 13.337364 22.985001 -2.010831 4.901622 -9.523800 0.000000 0.000000 0.000000 -7.675391 -34.997345 9.559826 4.713643 -37.465651 -4.682824 61.230081 -21.879621 -16.754372 0.000000 0.000000 0.000000 -27.051326 28.569290 -0.420715 -28.625583 21.884121 -0.335696 -77.323973 -0.433472 7.458400 0.000000 0.000000 0.000000 
-0.486214 0.821515 -2.426210 0.547232 28.569391 -5.927914 17.487538 -2.155154 -34.372711 -23.335615 3.685389 50.463417 10.111138 22.009129 10.239912 0.000000 0.000000 0.000000 -9.877939 -2.139082 -24.421758 -1.244767 -7.862028 63.564938 -8.672375 -21.851099 -7.184823 0.000000 0.000000 0.000000 -10.222024 -1.756571 34.094550 -6.664200 3.330359 -11.396766 -2.796071 13.377330 22.967729 -1.672556 4.736783 -10.133552 0.000000 0.000000 0.000000 -7.900012 -33.924157 9.219778 1.875958 -38.325102 -4.043971 62.634809 -25.015957 -19.202084 0.000000 0.000000 0.000000 -27.261799 28.184214 -0.555082 -29.521338 22.225226 -0.392390 -73.646677 2.429954 4.735350 0.000000 0.000000 0.000000 
-0.482123 0.819387 -2.422690 1.046495 28.654015 -5.288709 17.091582 -2.274743 -34.709786 -24.079018 4.053904 50.392857 10.761549 23.051145 10.785878 0.000000 0.000000 0.000000 -10.551334 -2.346305 -24.320872 -1.461322 -7.751350 63.999389 -8.752694 -22.109219 -7.599056 0.000000 0.000000 0.000000 -10.145777 -1.746055 33.934779 -7.468962 3.576772 -11.398096 -3.117275 13.661137 23.237085 -1.479245 4.760304 -10.785697 0.000000 0.000000 0.000000 -9.563735 -33.646359 9.022694 -0.863662 -38.578855 -3.225161 62.593820 -28.345352 -21.182425 0.000000 0.000000 0.000000 -28.600680 27.977778 -1.135794 -29.850300 22.561072 -0.344577 -68.389532 6.658085 1.686446 0.000000 0.000000 0.000000 
-0.478108 0.818092 -2.419152 1.572964 28.967807 -4.570315 16.835630 -2.429945 -35.241867 -24.692924 4.317111 50.434360 10.675709 22.948378 10.114409 0.000000 0.000000 0.000000 -11.038450 -2.595493 -24.779930 -1.846560 -7.531775 64.286000 -8.786771 -22.111464 -7.405049 0.000000 0.000000 0.000000 -10.570003 -1.746721 34.718928 -8.530091 3.893419 -11.952233 -3.256840 13.960877 22.725253 -1.090092 4.409397 -10.408966 0.000000 0.000000 0.000000 -10.604566 -33.382104 8.820760 -4.672342 -38.655660 -2.088358 64.033573 -31.599018 -23.967537 0.000000 0.000000 0.000000 -29.348327 28.087417 -1.389733 -30.334516 22.201144 -0.146212 -63.960945 9.801446 -0.300291 0.000000 0.000000 0.000000 
-0.474742 0.817069 -2.415519 1.954694 29.678984 -4.053679 16.667038 -2.614779 -35.701971 -25.341793 4.456551 49.984753 10.884473 23.371991 10.493475 0.000000 0.000000 0.000000 -11.440596 -2.795399 -24.716844 -2.447740 -7.390916 64.718783 -8.552227 -21.498303 -7.654655 0.000000 0.000000 0.000000 -10.834790 -1.843238 35.517650 -9.672526 4.232618 -12.357024 -3.201702 14.257559 22.478486 -0.464390 3.942537 -10.189314 0.000000 0.000000 0.000000 -11.913190 -33.915040 8.915123 -6.982460 -38.423057 -1.314195 63.883023 -33.834872 -25.320068 0.000000 0.000000 0.000000 -30.000072 27.723705 -1.683226 -31.208077 22.582781 -0.158362 -58.919964 11.792785 -1.375879 0.000000 0.000000 0.000000 
